<svg xmlns="http://www.w3.org/2000/svg" width="194.16" height="34.127" viewBox="0 0 194.16 34.127">
  <g id="Grupo_23" data-name="Grupo 23" transform="translate(-359 -388)">
    <g id="Grupo_21" data-name="Grupo 21" transform="translate(404.499 394.98)">
      <path id="Caminho_38" data-name="Caminho 38" d="M-311.68-50.873V-69.6a4.292,4.292,0,0,1,1.214-3.277,4.671,4.671,0,0,1,3.343-1.148h5.489a4.782,4.782,0,0,1,2.861.732,4.141,4.141,0,0,1,1.73,3.493v8.383a4.666,4.666,0,0,1-1.1,3.227,4.346,4.346,0,0,1-3.36,1.63h-7.252v5.688Zm2.961-10.312a1.821,1.821,0,0,0,.5,1.231,1.764,1.764,0,0,0,1.064.5h5.555a.463.463,0,0,0,.2-.033,1.635,1.635,0,0,0,1.4-1.364,1.168,1.168,0,0,0,.033-.333v-8.549a1.66,1.66,0,0,0-.316-.965,1.766,1.766,0,0,0-.948-.4h-5.456q-2.062,0-2.062,1.763v7.817A.974.974,0,0,0-308.72-61.185Zm14.071,4.624V-69.4a8.656,8.656,0,0,1,.067-1,4.148,4.148,0,0,1,.981-2.512,4.444,4.444,0,0,1,2.512-1.048,5.1,5.1,0,0,1,.765-.067h1.63V-71.1h-1.43q-1.6,0-1.6,1.763v12.774Zm6.753-4.291v-9.081q0-3.593,3.892-4.058a3.529,3.529,0,0,0,.4-.033h5.722a5.421,5.421,0,0,1,.7.067q3.959.566,3.959,4.025v9.081a4.173,4.173,0,0,1-2.4,3.759,4.492,4.492,0,0,1-2.262.532h-5.455a4.2,4.2,0,0,1-4.358-3.16Q-288.062-60.786-287.9-60.852Zm5.023,1.4h4.69q2.029,0,2.029-2.229V-69a1.824,1.824,0,0,0-2.029-2.1h-4.69a1.852,1.852,0,0,0-2.1,2.1v7.218Q-284.969-59.455-282.873-59.455Zm12.042,8.582v-2.894h9.414q2.2,0,2.2-2.062v-.732h-6.952a4.209,4.209,0,0,1-3.243-1.4,4.8,4.8,0,0,1-1.281-3.36v-8.25a4.046,4.046,0,0,1,2.628-4.125,4.086,4.086,0,0,1,1.5-.333h6.154a3.656,3.656,0,0,1,4.058,3.46,5.623,5.623,0,0,1,.067.765v14.637a3.873,3.873,0,0,1-1.464,3.26,5.6,5.6,0,0,1-3.526,1.031Zm2.994-10.412q.3,1.83,1.863,1.83h5.123a1.435,1.435,0,0,0,1.148-.482,1.945,1.945,0,0,0,.416-1.314v-7.884q0-1.963-1.563-1.963h-5.322a1.79,1.79,0,0,0-1.663,1.929Zm13.938,4.724V-69.4a8.663,8.663,0,0,1,.067-1,4.148,4.148,0,0,1,.981-2.512,4.444,4.444,0,0,1,2.512-1.048,5.1,5.1,0,0,1,.765-.067h1.63V-71.1h-1.43q-1.6,0-1.6,1.763v12.774Zm23.718,0V-69.6q0-4.424,4.025-4.424h2.628a5.5,5.5,0,0,1,.732.067,3.5,3.5,0,0,1,2.628,1.464,3.424,3.424,0,0,1,2.628-1.464,5.5,5.5,0,0,1,.732-.067h2.628q4.025,0,4.025,4.424v13.04h-2.894V-69.368q0-1.663-1.763-1.663h-2.561q-1.164.233-1.164,1.83v12.641h-2.894V-69.4a1,1,0,0,1-.033-.166,1.666,1.666,0,0,0-1.8-1.5h-2.3a1.167,1.167,0,0,0-.333.033,1.5,1.5,0,0,0-1,.366,1.975,1.975,0,0,0-.366,1.031v13.073Zm22.421,0V-69.6q0-4.424,4.025-4.424h2.628a5.5,5.5,0,0,1,.732.067,3.5,3.5,0,0,1,2.628,1.464,3.424,3.424,0,0,1,2.628-1.464,5.5,5.5,0,0,1,.732-.067h2.628q4.025,0,4.025,4.424v13.04h-2.894V-69.368q0-1.663-1.763-1.663h-2.561q-1.164.233-1.164,1.83v12.641h-2.894V-69.4a1,1,0,0,1-.033-.166,1.666,1.666,0,0,0-1.8-1.5h-2.3a1.167,1.167,0,0,0-.333.033,1.5,1.5,0,0,0-1,.366,1.975,1.975,0,0,0-.366,1.031v13.073Zm38.787,0V-69.4a8.659,8.659,0,0,1,.067-1,4.148,4.148,0,0,1,.981-2.512,4.444,4.444,0,0,1,2.512-1.048,5.1,5.1,0,0,1,.765-.067h1.63V-71.1h-1.43q-1.6,0-1.6,1.763v12.774Z" transform="translate(311.68 74.025)" fill="#6c4bbf"/>
      <path id="Caminho_36" data-name="Caminho 36" d="M0,12.774V12.33A6.347,6.347,0,0,1,1.031,8.537a3.942,3.942,0,0,1,3.426-1.63h7.185V4.092a1.145,1.145,0,0,0-.333-.815,1.029,1.029,0,0,0-.765-.349H0V0H10.345A3.822,3.822,0,0,1,14.5,3.227a7.059,7.059,0,0,1,.067.8v8.982a4.188,4.188,0,0,1-.632,2.229,4.162,4.162,0,0,1-3.626,2.229H4.491a4.244,4.244,0,0,1-2.528-.9,4.693,4.693,0,0,1-1.7-2.129A4.847,4.847,0,0,1,0,12.774ZM3.692,14.3a3.675,3.675,0,0,0,1.63.266H9.248q2.4,0,2.4-1.73V11.664Q11.643,10,9.614,9.8H4.99q-2.062.233-2.062,1.863V12.84A1.5,1.5,0,0,0,3.692,14.3Z" transform="translate(140.27 17.47) rotate(180)" fill="#6c4bbf"/>
      <path id="Caminho_37" data-name="Caminho 37" d="M0,12.774V12.33A6.347,6.347,0,0,1,1.031,8.537a3.942,3.942,0,0,1,3.426-1.63h7.185V4.092a1.145,1.145,0,0,0-.333-.815,1.029,1.029,0,0,0-.765-.349H0V0H10.345A3.822,3.822,0,0,1,14.5,3.227a7.059,7.059,0,0,1,.067.8v8.982a4.188,4.188,0,0,1-.632,2.229,4.162,4.162,0,0,1-3.626,2.229H4.491a4.244,4.244,0,0,1-2.528-.9,4.693,4.693,0,0,1-1.7-2.129A4.847,4.847,0,0,1,0,12.774ZM3.692,14.3a3.674,3.674,0,0,0,1.63.266H9.248q2.4,0,2.4-1.73V11.664Q11.643,10,9.614,9.8H4.99q-2.062.233-2.062,1.863V12.84A1.5,1.5,0,0,0,3.692,14.3Z" transform="translate(65.304 0.006)" fill="#6c4bbf"/>
    </g>
    <path id="Caminho_42" data-name="Caminho 42" d="M-1956.142,34.127h-31.171A2.69,2.69,0,0,1-1990,31.44V2.687A2.69,2.69,0,0,1-1987.313,0h31.171a2.69,2.69,0,0,1,2.687,2.687V31.44A2.69,2.69,0,0,1-1956.142,34.127ZM-1971.6,9.638a18.434,18.434,0,0,1,1.51,3.893,17.783,17.783,0,0,1,.563,4.088,17.523,17.523,0,0,1-.389,4.079,18.153,18.153,0,0,1-1.345,3.921h1.922A19.125,19.125,0,0,0-1968,21.652a17.316,17.316,0,0,0,.39-4.032,17.588,17.588,0,0,0-.561-4.046,19.329,19.329,0,0,0-1.51-3.935h-1.922Zm-5.216,1.809h0l-9.828,5.016V18.9l9.828,5.016V21.557l-7.805-3.875,7.805-3.875v-2.36Zm10.286,0h0v2.36l7.8,3.875-7.8,3.875v2.358l9.828-5.016V16.463l-9.828-5.016Zm-7.882,8.1h0l-1.371,3.942h1.683l1.719-3.942h-2.031Zm-.113-7.59V14.13h2.219V11.957Z" transform="translate(2349 388)" fill="#6c46c2"/>
  </g>
</svg>
